{
  "accessors": [
    {
      "bufferView": 2,
      "componentType": 5126,
      "count": 39373,
      "max": [
        263.07180786132812,
        214.05734252929688,
        147.8524169921875
      ],
      "min": [
        -262.70651245117188,
        -206.63665771484375,
        -2.0941925048828125
      ],
      "type": "VEC3"
    },
    {
      "bufferView": 2,
      "byteOffset": 472476,
      "componentType": 5126,
      "count": 39373,
      "max": [
        0.99999672174453735,
        0.99989336729049683,
        0.99999821186065674
      ],
      "min": [
        -0.99999076128005981,
        -0.99998182058334351,
        -0.99999982118606567
      ],
      "type": "VEC3"
    },
    {
      "bufferView": 1,
      "componentType": 5126,
      "count": 39373,
      "max": [
        0.98252224922180176,
        0.99188995361328125
      ],
      "min": [
        0.0098431305959820747,
        0.010617733001708984
      ],
      "type": "VEC2"
    },
    {
      "bufferView": 0,
      "componentType": 5125,
      "count": 194031,
      "max": [
        39372
      ],
      "min": [
        0
      ],
      "type": "SCALAR"
    }
  ],
  "asset": {
    "extras": {
      "author": "Ashkelon (https://sketchfab.com/Ashkelon)",
      "license": "CC-BY-4.0 (http://creativecommons.org/licenses/by/4.0/)",
      "source": "https://sketchfab.com/3d-models/yak-cdd952b6a19a4975aa00feb5b58e4fa9",
      "title": "YAK"
    },
    "generator": "Sketchfab-9.37.0",
    "version": "2.0"
  },
  "bufferViews": [
    {
      "buffer": 0,
      "byteLength": 776124,
      "byteOffset": 0,
      "name": "floatBufferViews",
      "target": 34963
    },
    {
      "buffer": 0,
      "byteLength": 314984,
      "byteOffset": 776124,
      "byteStride": 8,
      "name": "floatBufferViews",
      "target": 34962
    },
    {
      "buffer": 0,
      "byteLength": 944952,
      "byteOffset": 1091108,
      "byteStride": 12,
      "name": "floatBufferViews",
      "target": 34962
    }
  ],
  "buffers": [
    {
      "byteLength": 2036060,
      "uri": "scene.bin"
    }
  ],
  "images": [
    {
      "uri": "textures/material_baseColor.png"
    }
  ],
  "materials": [
    {
      "doubleSided": true,
      "emissiveFactor": [
        0,
        0,
        0
      ],
      "name": "material",
      "pbrMetallicRoughness": {
        "baseColorFactor": [
          1,
          1,
          1,
          1
        ],
        "baseColorTexture": {
          "index": 0,
          "texCoord": 0
        },
        "metallicFactor": 0.62796788452535135,
        "roughnessFactor": 0.20786744006469304
      }
    }
  ],
  "meshes": [
    {
      "name": "YAK_Yak_0",
      "primitives": [
        {
          "attributes": {
            "NORMAL": 1,
            "POSITION": 0,
            "TEXCOORD_0": 2
          },
          "indices": 3,
          "material": 0,
          "mode": 4
        }
      ]
    }
  ],
  "nodes": [
    {
      "children": [
        1
      ],
      "name": "RootNode (gltf orientation matrix)",
      "rotation": [
        -0.70710678118654746,
        -0,
        -0,
        0.70710678118654757
      ]
    },
    {
      "children": [
        2
      ],
      "name": "RootNode (model correction matrix)"
    },
    {
      "children": [
        3
      ],
      "matrix": [
        1,
        0,
        0,
        0,
        0,
        0,
        1,
        0,
        0,
        -1,
        0,
        0,
        0,
        0,
        0,
        1
      ],
      "name": "5b88abda07614cccb2bb00b1dd52d41d.fbx"
    },
    {
      "children": [
        4
      ],
      "name": "RootNode"
    },
    {
      "children": [
        5
      ],
      "matrix": [
        -7.3159570948604751,
        -9.1489929777258649e-09,
        -0.56638749288422541,
        0,
        -0.5663874928842163,
        1.4280235895042443e-06,
        7.3159570948603365,
        0,
        1.0110334704754538e-07,
        7.3378486633299378,
        -1.4244694397415929e-06,
        0,
        1.862645149230957e-07,
        0,
        0,
        1
      ],
      "name": "YAK"
    },
    {
      "mesh": 0,
      "name": "YAK_Yak_0"
    }
  ],
  "samplers": [
    {
      "magFilter": 9729,
      "minFilter": 9987,
      "wrapS": 10497,
      "wrapT": 10497
    }
  ],
  "scene": 0,
  "scenes": [
    {
      "name": "OSG_Scene",
      "nodes": [
        0
      ]
    }
  ],
  "textures": [
    {
      "sampler": 0,
      "source": 0
    }
  ]
}

